<svg width="1100" height="827" viewBox="0 0 1100 827" fill="none" xmlns="http://www.w3.org/2000/svg">
<style type="text/css" media="screen">
            #leaves-group-1 {
            animation: leaves-flow 3s ease-in-out infinite alternate;
            }

            #leaves-group-2 {
            animation: leaves-flow-2 3s ease-in-out infinite alternate;
            }

            #leaves-shadow {
            animation: shadow-flow 3s ease-in-out infinite alternate;
            }

            @keyframes leaves-flow {
            from {
            transform: translate(0px, 0px) rotateZ(0deg);
            }

            to {
            transform: translate(-40px, 40px) rotateZ(15deg);
            }
            }

            @keyframes leaves-flow-2 {
            from {

            transform: translate(0px, 0px);
            }

            to {

            transform: translate(-30px, 50px);
            }
            }

            @keyframes shadow-flow {
            from {
            transform: translate(0px, 0px);
            }

            to {
            opacity: 50%;
            opacity: 100%;
            transform: translate(-30px, -10px);
            }
            }
            </style>
<g id="undraw_windy_day_x63l 1" clip-path="url(#clip0)">
<g id="doctor-all">
<path id="Vector" d="M809.592 783C737.719 798.89 643.664 795.886 542.738 783.117C460.186 772.673 367.089 746.552 291.528 716.141C299.329 708.251 309.54 703.19 320.543 701.759C320.851 701.713 321.169 701.667 321.486 701.632C327.057 700.966 332.688 700.967 338.258 701.635C408.822 709.556 395.872 748.18 491.062 704.862C550.261 677.922 613.941 674.131 655.985 683.28C656.76 683.449 657.524 683.621 658.288 683.798C682.608 689.472 699.241 699.579 702.837 712.027C712.653 745.982 668.718 766.594 744.128 768.082C765.052 768.495 788.493 777.834 809.592 783Z" fill="#56423D"/>
<path id="Vector_2" d="M1097.63 822.442C1068.78 820.109 1039.98 815.682 1011.29 811.956C970.831 806.702 930.397 801.287 889.983 795.712C809.869 784.747 729.803 773.432 649.713 762.285C569.064 751.059 488.392 739.996 407.698 729.096C332.899 718.987 258.07 709.099 183.211 699.432C127.021 692.262 70.7936 685.331 14.4237 679.716C10.0946 679.284 5.76507 678.857 1.43515 678.434C-0.484908 678.246 -0.471848 681.247 1.43515 681.434C53.9304 686.58 106.305 692.736 158.639 699.318C233.325 708.711 307.941 718.657 382.542 728.702C463.239 739.569 543.914 750.6 624.567 761.794C704.317 772.859 784.037 784.134 863.798 795.119C937.786 805.308 1011.79 815.886 1086.02 824.25C1089.88 824.686 1093.75 825.128 1097.63 825.442C1099.56 825.598 1099.55 822.597 1097.63 822.442V822.442Z" fill="#56423D"/>
<path id="Vector_3" d="M488.986 717.386L498.042 765.254L518.742 762.667L512.273 710.917L488.986 717.386Z" fill="#A0616A"/>
<path id="Vector_4" d="M593.779 670.811L598.954 705.742H626.122L620.947 673.399L593.779 670.811Z" fill="#A0616A"/>
<path id="Vector_5" d="M468.286 370.664C468.286 370.664 446.293 413.358 454.055 519.444C461.817 625.531 461.817 726.442 461.817 726.442L517.448 722.561L532.973 458.638L593.779 687.63L633.885 683.749L623.535 459.932L591.191 352.552L468.286 370.664Z" fill="#41312E"/>
<path id="Vector_6" d="M505.804 743.261C505.804 743.261 509.686 731.617 503.217 731.617H488.986C488.986 731.617 473.461 760.079 464.405 762.667C455.349 765.254 426.886 789.835 454.055 792.423C481.223 795.01 522.623 780.779 522.623 775.604C522.623 770.429 518.742 748.436 518.742 748.436L505.804 743.261Z" fill="#41312E"/>
<path id="Vector_7" d="M619.653 697.98C619.653 697.98 595.871 691.402 597.412 695.338C598.954 699.274 593.779 710.917 593.779 710.917C593.779 710.917 580.841 784.66 619.653 778.192C658.465 771.723 630.003 716.092 630.003 716.092L624.256 694.083L619.653 697.98Z" fill="#41312E"/>
<path id="Vector_8" d="M634.858 446.243H623.995C623.995 446.243 627.337 406.968 623.995 403.347C623.995 403.347 593.633 400.005 562.993 433.43C562.993 433.43 568.285 396.941 607.839 394.991C620.519 394.367 627.847 399.409 631.947 406.55C640.644 421.687 634.858 446.243 634.858 446.243Z" fill="#56423D"/>
<path id="Vector_9" opacity="0.15" d="M634.858 446.243H623.995C623.995 446.243 627.337 406.968 623.995 403.347L631.947 406.551C640.644 421.687 634.858 446.243 634.858 446.243Z" fill="black"/>
<path id="Vector_10" d="M571.071 420.617L556.029 446.243H562.993C562.993 446.243 564.107 427.302 571.071 420.617Z" fill="#56423D"/>
<path id="Vector_11" opacity="0.15" d="M571.071 420.617L556.029 446.243H562.993C562.993 446.243 564.107 427.302 571.071 420.617Z" fill="black"/>
<path id="Vector_12" d="M699.481 554.598C699.686 558.903 698.843 563.192 697.023 567.098C695.204 571.004 692.463 574.409 689.036 577.022C689.036 577.022 550.598 609.89 535.278 607.105C533.394 606.752 531.565 606.153 529.838 605.322C517.626 599.528 509.93 583.707 509.93 583.707C509.93 583.707 509.699 579.618 509.356 572.955C508.699 560.069 507.635 537.554 507.047 516.359C506.467 495.418 506.353 475.77 507.562 467.97C510.626 448.193 531.796 446.522 531.796 446.522L672.741 440.394C677.37 440.347 681.984 440.951 686.445 442.188C701.682 446.764 699.481 458.5 699.481 458.5C699.481 458.5 698.924 539.557 699.481 554.598Z" fill="#575A89"/>
<path id="Vector_13" d="M686.445 442.188C677.807 444.879 657.042 450.812 649.621 448.193C640.151 444.851 566.893 447.079 540.152 450.143C513.412 453.207 522.882 525.63 522.882 525.63L507.047 516.359C506.467 495.418 506.353 475.77 507.562 467.97C510.626 448.193 531.796 446.522 531.796 446.522L672.741 440.394C677.37 440.347 681.984 440.951 686.445 442.188V442.188Z" fill="#56423D"/>
<path id="Vector_14" d="M585.277 494.154C585.277 494.154 571.861 419.164 596.535 408.888L599.761 408.918C599.761 408.918 591.962 419.224 595.026 438.166C598.09 457.107 596.419 500.282 596.419 500.282C596.419 500.282 586.948 505.853 585.277 494.154Z" fill="#41312E"/>
<path id="Vector_15" d="M595.026 411.425C595.026 411.425 609.789 387.749 636.808 400.84C663.827 413.932 666.334 443.737 666.334 443.737C666.334 443.737 647.671 389.141 595.026 411.425Z" fill="#41312E"/>
<path id="Vector_16" d="M668.284 497.218L663.827 468.527L666.056 441.664L671.626 469.363L674.133 497.218H668.284Z" fill="#41312E"/>
<path id="Vector_17" d="M618.145 493.875L633.744 489.975L649.621 491.925V498.889L635.137 503.346L618.145 501.674V493.875Z" fill="#41312E"/>
<path id="Vector_18" d="M527.339 594.709C527.723 598.338 528.563 601.903 529.838 605.322C517.626 599.528 509.93 583.707 509.93 583.707C509.93 583.707 509.699 579.618 509.356 572.955L519.54 577.161L527.339 594.709Z" fill="#56423D"/>
<path id="Vector_19" d="M534.024 610.029C533.309 609.861 532.656 609.497 532.138 608.977C534.227 609.818 535.108 610.258 534.024 610.029Z" fill="#41312E"/>
</g>
<g id="head">
<path id="Vector_20" d="M510.979 91.2169C532.415 91.2169 549.792 73.8401 549.792 52.4047C549.792 30.9694 532.415 13.5926 510.979 13.5926C489.544 13.5926 472.167 30.9694 472.167 52.4047C472.167 73.8401 489.544 91.2169 510.979 91.2169Z" fill="#A0616A"/>
<path id="Vector_21" d="M472.075 56.9562C472.075 56.9562 468.113 51.0126 469.637 44.6118C470.548 40.9778 470.907 37.2275 470.704 33.4867C470.704 33.4867 473.904 23.1235 477.105 17.3323C480.305 11.5411 478.781 9.10268 488.839 7.27388C498.898 5.44508 494.783 -7.6613 521.3 6.51188C522.195 7.76103 523.44 8.71717 524.877 9.25963C526.315 9.8021 527.881 9.90658 529.378 9.55988C534.864 8.49308 536.845 16.1131 536.845 16.1131C536.845 16.1131 540.503 13.9795 541.874 17.0275C543.246 20.0755 553.026 15.1981 553.026 35.7721C553.026 56.3461 541.897 74.7239 541.897 74.7239C541.897 74.7239 542.713 40.116 524.577 36.6109C506.442 33.1057 486.934 22.8949 482.21 36.0013C479.66 43.3572 476.258 50.39 472.075 56.9562V56.9562Z" fill="#2F2E41"/>
</g>
<g id="top-body">
<path id="Vector_22" d="M411.362 403.008C411.362 403.008 397.13 468.988 416.537 467.695C435.943 466.401 426.886 406.889 426.886 406.889L411.362 403.008Z" fill="#A0616A"/>
<path id="Vector_23" d="M485.105 73.1046C485.105 73.1046 491.573 110.623 487.692 118.385C483.811 126.148 518.742 141.673 518.742 141.673L536.854 97.6856V73.1046L485.105 73.1046Z" fill="#A0616A"/>
<path id="Vector_24" d="M505.804 117.092C505.804 117.092 494.027 118.824 488.919 110.195C483.811 101.567 472.167 170.135 472.167 170.135C472.167 170.135 477.342 260.697 470.874 281.396C464.405 302.096 465.699 309.859 468.286 313.74C470.874 317.621 478.636 312.446 472.167 322.796C465.699 333.146 465.699 326.677 465.699 337.027C465.699 347.377 463.111 384.895 463.111 384.895L602.835 374.545L536.854 91.2169C536.854 91.2169 514.861 118.385 505.804 117.092Z" fill="#3F3D56"/>
<path id="Vector_25" d="M560.141 105.448C560.141 105.448 613.185 113.21 615.772 124.854C618.36 136.498 670.109 459.932 642.941 476.751C615.772 493.569 527.798 506.507 523.917 489.688C520.036 472.87 499.336 130.029 536.854 91.2169L560.141 105.448Z" fill="#E1D7CD"/>
<path id="Vector_26" d="M488.91 107.389L438.53 157.197L456.642 318.915C456.642 318.915 420.418 510.388 441.118 510.388C461.817 510.388 459.23 512.975 463.111 498.744C466.992 484.513 488.91 107.389 488.91 107.389Z" fill="#E1D7CD"/>
<path id="Vector_27" d="M451.467 153.316L438.53 157.197C438.53 157.197 426.886 166.254 428.18 185.66C429.474 205.066 426.886 260.697 426.886 260.697C426.886 260.697 419.124 272.34 423.005 286.571L404.893 410.77L444.999 417.239L459.23 352.552L451.467 153.316Z" fill="#E1D7CD"/>
<path id="Vector_28" d="M611.891 359.021C611.891 359.021 596.366 440.526 611.891 435.351C627.416 430.176 646.822 373.252 633.884 364.196C620.947 355.139 611.891 359.021 611.891 359.021Z" fill="#A0616A"/>
<path id="Vector_29" d="M593.779 117.092C593.779 117.092 623.535 111.917 630.003 150.729C636.472 189.541 653.291 265.871 653.291 265.871L648.671 382.34L605.422 368.077L606.716 278.809L584.722 145.554L593.779 117.092Z" fill="#E1D7CD"/>
<path id="Vector_30" opacity="0.15" d="M582.782 169.488L599.6 279.456L595.719 372.605L613.832 282.043L582.782 169.488Z" fill="black"/>
</g>
<g id="leaves-shadow">
<path id="Vector_31" d="M236.924 757.909C226.733 755.11 188.74 758.889 188.74 758.889C190.479 762.276 192.523 765.498 194.847 768.515L202.377 763.805L197.247 771.369C198.627 772.903 200.159 774.293 201.819 775.518L213.409 768.269L206.775 778.049C206.845 778.069 206.915 778.092 206.985 778.111C217.176 780.909 232.14 778.656 240.407 773.077C248.675 767.498 247.116 760.707 236.924 757.909Z" fill="#3F3D56"/>
<path id="Vector_32" d="M264.924 741.909C254.733 739.11 216.74 742.889 216.74 742.889C218.479 746.276 220.523 749.498 222.847 752.515L230.377 747.805L225.247 755.369C226.627 756.903 228.159 758.293 229.819 759.518L241.409 752.269L234.775 762.049C234.845 762.069 234.915 762.092 234.985 762.111C245.176 764.909 260.14 762.656 268.407 757.077C276.675 751.498 275.116 744.707 264.924 741.909Z" fill="#3F3D56"/>
<path id="Vector_33" d="M562.924 804.909C552.733 802.11 514.74 805.889 514.74 805.889C516.479 809.276 518.523 812.498 520.847 815.515L528.377 810.805L523.247 818.369C524.627 819.903 526.159 821.293 527.819 822.518L539.409 815.269L532.775 825.049C532.845 825.069 532.915 825.092 532.985 825.111C543.176 827.909 558.14 825.656 566.407 820.077C574.675 814.498 573.116 807.707 562.924 804.909Z" fill="#3F3D56"/>
<path id="Vector_34" d="M264.924 782.909C254.733 780.11 216.74 783.889 216.74 783.889C218.479 787.276 220.523 790.498 222.847 793.515L230.377 788.805L225.247 796.369C226.627 797.903 228.159 799.293 229.819 800.518L241.409 793.269L234.775 803.049C234.845 803.069 234.915 803.092 234.985 803.111C245.176 805.909 260.14 803.656 268.407 798.077C276.675 792.498 275.116 785.707 264.924 782.909Z" fill="#3F3D56"/>
</g>
<g id="leaves-group-2">
<path id="Vector_35" d="M225.312 483.763C216.719 490.897 201.571 525.959 201.571 525.959C206.418 526.471 211.297 526.625 216.167 526.421L214.462 517.111L220.798 526.049C223.27 525.784 225.712 525.29 228.092 524.572L225.469 510.245L233.661 521.8C233.721 521.752 233.784 521.706 233.843 521.656C242.436 514.523 247.492 500.258 245.136 489.794C242.781 479.33 233.905 476.63 225.312 483.763Z" fill="#FF8551"/>
<path id="Vector_36" d="M694.29 427.688C691.169 432.484 689.187 444.572 688.002 455.072L693.884 461.342L687.576 459.109C686.8 466.968 686.495 473.102 686.495 473.102C686.495 473.102 711.819 467.617 717.82 458.393C723.821 449.17 723.419 434.819 716.921 426.34C710.424 417.861 700.291 418.464 694.29 427.688Z" fill="#FF8551"/>
<path id="Vector_37" d="M720.641 604.696C717.782 609.494 715.964 621.582 714.877 632.082L720.26 638.351L714.485 636.119C713.772 643.979 713.492 650.113 713.492 650.113C713.492 650.113 736.678 644.62 742.175 635.395C747.672 626.17 747.307 611.819 741.361 603.342C735.415 594.865 726.138 595.471 720.641 604.696Z" fill="#FF8551"/>
</g>
<g id="leaves-group-1">
<path id="Vector_38" d="M454.312 639.763C445.719 646.897 430.571 681.959 430.571 681.959C435.418 682.471 440.297 682.625 445.167 682.421L443.462 673.111L449.798 682.049C452.27 681.784 454.712 681.29 457.092 680.572L454.469 666.245L462.661 677.8C462.721 677.752 462.784 677.706 462.843 677.656C471.436 670.523 476.492 656.258 474.136 645.794C471.781 635.33 462.905 632.63 454.312 639.763Z" fill="#FF8551"/>
<path id="Vector_39" d="M420.68 312.135C413.362 319.759 398.571 354.959 398.571 354.959C402.378 355.045 406.185 354.784 409.945 354.179L409.394 345.314L413.597 353.43C415.604 352.948 417.556 352.264 419.425 351.389L418.577 337.745L424.012 348.239C424.063 348.187 424.116 348.136 424.166 348.084C431.485 340.459 436.637 326.231 435.675 316.304C434.712 306.377 427.999 304.51 420.68 312.135Z" fill="#FF8551"/>
<path id="Vector_40" d="M715.312 78.7632C706.719 85.8967 691.571 120.959 691.571 120.959C696.418 121.471 701.297 121.625 706.167 121.421L704.462 112.111L710.798 121.049C713.27 120.784 715.712 120.29 718.092 119.572L715.469 105.245L723.661 116.801C723.721 116.752 723.784 116.705 723.843 116.656C732.436 109.523 737.492 95.2576 735.136 84.7937C732.781 74.3298 723.905 71.6299 715.312 78.7632Z" fill="#FF8551"/>
</g>
</g>
<defs>
<clipPath id="clip0">
<rect width="1099.07" height="826.313" fill="white"/>
</clipPath>
</defs>
</svg>
